<svg xmlns="http://www.w3.org/2000/svg" shape-rendering="geometricPrecision" text-rendering="geometricPrecision" image-rendering="optimizeQuality" fill-rule="evenodd" clip-rule="evenodd" viewBox="0 0 513.07 515.83"><path d="M65.79 0h301.26c36.19 0 65.79 29.63 65.79 65.79v384.26c0 36.15-29.63 65.78-65.79 65.78H65.79C29.63 515.83 0 486.23 0 450.05V65.79C0 29.6 29.6 0 65.79 0zm386.16 337.23h46.62c1.76 0 3.42.29 5.06.87 2.13.75 3.86 1.84 5.29 3.27l-.01.01c1.48 1.46 2.58 3.23 3.28 5.25h-.01l.01.04c.58 1.67.88 3.38.88 5.06v67.94c0 1.18-.16 2.36-.48 3.56-.08.32-.17.65-.28.99-.66 1.97-1.72 3.68-3.14 5.11a13.582 13.582 0 01-3.5 2.55c-1.84.93-3.75 1.39-5.72 1.39h-48v-96.04zm0-254.67h46.63c2.17 0 4.2.47 6.15 1.38 2.21 1.04 3.93 2.47 5.29 4.29l-.03.02c1.05 1.41 1.84 2.88 2.35 4.49l-.05.01c.52 1.61.78 3.19.78 4.79v68.04c0 1.47-.27 2.94-.82 4.37-.2.58-.46 1.15-.76 1.71-.82 1.5-1.96 2.87-3.42 4-.75.61-1.55 1.12-2.39 1.55l-.01-.01-.04.01c-1.85.93-3.74 1.4-5.67 1.4h-48.01V82.56zm0 126.07l46.62.01c2.2 0 4.24.46 6.2 1.38l-.01.02c2.19 1.03 3.9 2.45 5.26 4.26l-.03.02c.92 1.24 1.63 2.51 2.12 3.82.64 1.7.96 3.39.96 5.07v68.44c0 1.97-.46 3.87-1.4 5.72a13.33 13.33 0 01-2.51 3.49l-.02-.02c-1.1 1.09-2.27 1.95-3.51 2.57l-.03-.04c-1.85.93-3.73 1.39-5.65 1.39h-48v-96.13zm-291.62 43.29c-4.91-7.72-14.06-18.32-14.06-27.5.22-6.08 4.16-11.41 9.91-13.41-.45-7.72-.76-15.59-.76-23.38 0-4.6 0-9.24.26-13.8.24-2.89.76-5.75 1.55-8.55a49.153 49.153 0 0121.95-27.88 64.81 64.81 0 0111.91-5.7c7.6-2.73 3.84-15.43 12.11-15.6 19.32-.5 51.08 17.18 63.47 30.6a49.034 49.034 0 0112.66 31.78l-.79 33.84c3.71.77 6.78 3.38 8.13 6.93 2.64 10.7-8.44 23.97-13.59 32.48-4.76 7.84-22.92 33.19-22.92 33.36 2.57 38.29 90.7 8.29 90.7 89.18H91.98c0-79.02 92.03-53.54 91.08-89.25 0-.5-20.87-30.02-22.73-33v-.1z"/></svg>