<?xml version="1.0" encoding="utf-8"?><svg version="1.1" id="Layer_1" xmlns="http://www.w3.org/2000/svg" xmlns:xlink="http://www.w3.org/1999/xlink" x="0px" y="0px" viewBox="0 0 71.58 122.88" style="enable-background:new 0 0 71.58 122.88" xml:space="preserve"><style type="text/css">.st0{fill-rule:evenodd;clip-rule:evenodd;}</style><g><path class="st0" d="M12.72,0h46.13c3.5,0,6.71,1.44,9,3.72c2.32,2.32,3.72,5.49,3.72,9v97.43c0,3.5-1.44,6.71-3.72,9 c-2.32,2.32-5.49,3.72-9,3.72H12.72c-3.5,0-6.71-1.44-9-3.72c-2.32-2.32-3.72-5.49-3.72-9V12.72c0-3.5,1.44-6.71,3.72-9 C6.05,1.4,9.22,0,12.72,0L12.72,0z M10.68,27.3H60.9v24.5H10.68V27.3L10.68,27.3z M38,90.8h22.91v4.77H38V90.8L38,90.8z M10.68,58.27h21.24v9.75H10.68V58.27L10.68,58.27z M38,58.25h22.91v9.78H38V58.25L38,58.25z M37.66,74.53h22.91v9.78H37.66V74.53 L37.66,74.53z M11.01,74.54h21.24v9.75H11.01V74.54L11.01,74.54z M10.68,90.81h21.24v4.76H10.68V90.81L10.68,90.81z M35.77,107.24 c2.88,0,5.24,2.32,5.24,5.24c0,2.88-2.32,5.24-5.24,5.24c-2.88,0-5.24-2.32-5.24-5.24C30.54,109.6,32.86,107.24,35.77,107.24 L35.77,107.24z M3.61,103.26h64.32V19.73H3.61V103.26L3.61,103.26z"/></g></svg>